<?xml version="1.0" standalone="no"?>
<!DOCTYPE svg PUBLIC "-//W3C//DTD SVG 20010904//EN"
 "http://www.w3.org/TR/2001/REC-SVG-20010904/DTD/svg10.dtd">
<svg version="1.0" xmlns="http://www.w3.org/2000/svg"
 width="300.000000pt" height="300.000000pt" viewBox="0 0 300.000000 300.000000"
 preserveAspectRatio="xMidYMid meet">
<metadata>
Created by potrace 1.14, written by Peter Selinger 2001-2017
</metadata>
<g transform="translate(0.000000,300.000000) scale(0.100000,-0.100000)"
fill="#000000" stroke="none">
<path d="M1760 2866 c-28 -35 11 -93 48 -70 35 22 22 84 -18 84 -10 0 -23 -7
-30 -14z"/>
<path d="M1167 2820 c-109 -33 -166 -161 -118 -265 78 -168 320 -145 360 35
32 145 -102 272 -242 230z"/>
<path d="M1960 2810 c-39 -39 -11 -110 43 -110 54 0 79 84 35 114 -30 21 -54
20 -78 -4z"/>
<path d="M694 2671 c-55 -25 -87 -71 -92 -135 -4 -57 18 -101 71 -140 41 -30
130 -29 175 2 97 70 85 219 -24 272 -50 25 -77 25 -130 1z"/>
<path d="M1630 2667 c-89 -47 -114 -155 -55 -233 74 -97 218 -79 267 34 34 77
1 164 -78 202 -52 26 -81 25 -134 -3z"/>
<path d="M2232 2667 c-77 -43 -72 -164 8 -197 71 -30 150 24 150 102 0 32 -7
47 -34 74 -37 37 -81 44 -124 21z"/>
<path d="M400 2383 c-40 -12 -60 -29 -75 -60 -23 -47 -13 -95 26 -127 61 -52
147 -25 170 53 9 32 8 44 -6 75 -10 20 -25 40 -34 45 -24 12 -64 19 -81 14z"/>
<path d="M2460 2371 c-104 -58 -113 -203 -17 -268 50 -35 104 -38 157 -11 113
58 122 194 18 271 -38 28 -114 32 -158 8z"/>
<path d="M1015 2261 c-58 -26 -101 -80 -115 -143 -13 -62 -8 -1050 7 -1160 10
-79 28 -102 114 -148 251 -134 609 -151 830 -39 129 65 235 199 276 350 23 86
23 353 -1 453 -44 184 -178 320 -357 360 -35 8 -99 18 -141 21 l-78 7 0 54 c0
127 -41 207 -125 245 -34 16 -67 19 -205 19 -138 0 -171 -3 -205 -19z m375
-121 c30 -16 40 -67 40 -210 l0 -137 58 13 c156 37 338 -5 430 -99 65 -66 94
-143 100 -258 8 -159 -31 -271 -123 -358 -63 -60 -114 -86 -212 -112 -86 -22
-260 -26 -359 -8 -84 14 -211 56 -261 86 l-43 25 0 514 c0 501 1 515 20 534
18 18 33 20 176 20 85 0 164 -4 174 -10z"/>
<path d="M1463 1530 c-36 -15 -43 -43 -43 -169 l0 -121 49 0 c57 0 96 25 117
76 17 40 18 144 3 177 -19 41 -75 57 -126 37z"/>
<path d="M187 2042 c-37 -41 -11 -102 43 -102 36 0 60 23 60 59 0 54 -68 82
-103 43z"/>
<path d="M2555 1941 c-105 -47 -145 -180 -83 -279 54 -88 180 -116 267 -59 50
33 78 76 87 132 17 117 -74 225 -191 225 -22 0 -58 -9 -80 -19z"/>
<path d="M380 1848 c-77 -53 -100 -134 -59 -208 32 -56 80 -84 146 -84 84 0
142 55 151 143 4 42 0 58 -22 95 -15 25 -40 53 -56 61 -44 23 -121 19 -160 -7z"/>
<path d="M130 1812 c-28 -23 -20 -59 16 -68 46 -12 72 37 38 70 -20 20 -27 20
-54 -2z"/>
<path d="M2475 1436 c-43 -19 -81 -64 -95 -112 -11 -36 -10 -46 10 -93 54
-125 199 -135 278 -20 20 28 23 43 20 87 -5 62 -28 98 -84 129 -44 26 -85 28
-129 9z"/>
<path d="M274 1411 c-62 -28 -114 -109 -114 -178 0 -41 40 -121 74 -146 71
-55 152 -59 230 -13 103 60 119 227 29 308 -53 48 -149 61 -219 29z"/>
<path d="M394 916 c-17 -8 -44 -31 -60 -52 -24 -31 -29 -47 -29 -94 0 -67 31
-116 91 -145 100 -47 224 31 224 143 0 118 -117 195 -226 148z"/>
<path d="M652 524 c-27 -19 -52 -65 -52 -96 0 -35 34 -83 69 -97 95 -40 183
58 139 154 -23 50 -109 72 -156 39z"/>
<path d="M946 278 c-22 -31 -20 -64 6 -88 28 -26 58 -26 86 0 44 41 16 110
-43 110 -24 0 -39 -7 -49 -22z"/>
<path d="M1172 198 c-28 -28 -3 -72 39 -66 30 4 47 33 33 56 -14 21 -55 27
-72 10z"/>
</g>
</svg>
